<?xml version="1.0" encoding="UTF-8"?>
<!DOCTYPE svg PUBLIC "-//W3C//DTD SVG 1.1//EN" "http://www.w3.org/Graphics/SVG/1.1/DTD/svg11.dtd">
<!-- Creator: CorelDRAW -->
<svg xmlns="http://www.w3.org/2000/svg" xml:space="preserve" width="512px" height="512px" version="1.1" style="shape-rendering:geometricPrecision; text-rendering:geometricPrecision; image-rendering:optimizeQuality; fill-rule:evenodd; clip-rule:evenodd"
viewBox="0 0 512 512"
 xmlns:xlink="http://www.w3.org/1999/xlink">
 <defs>
  <style type="text/css">
   <![CDATA[
    .fil0 {fill:black}
   ]]>
  </style>
 </defs>
 <g id="Layer_x0020_1">
  <metadata id="CorelCorpID_0Corel-Layer"/>
  <g id="_312774120">
   <g>
    <g>
     <g id="_312771312">
      <path class="fil0" d="M383 352c-12,0 -22,-9 -22,-21 0,-5 6,-16 15,-34 2,-3 3,-4 3,-6 1,-1 3,-2 5,-2 2,0 4,1 4,2 1,2 2,4 3,7 10,18 15,29 15,33 0,12 -10,21 -23,21zm1 -47c-5,8 -12,23 -12,26 0,6 5,11 11,11 7,0 12,-5 12,-11 0,-3 -7,-18 -11,-26z"/>
     </g>
     <g id="_312772680">
      <path class="fil0" d="M431 397c-12,0 -22,-9 -22,-21 0,-5 5,-16 15,-34 1,-2 2,-4 3,-5 0,-2 2,-3 4,-3 0,0 0,0 0,0 2,0 4,1 5,3 0,1 1,3 3,6 9,18 14,29 14,33 0,12 -10,21 -22,21zm0 -47c-4,8 -12,23 -12,26 0,6 5,11 12,11 6,0 12,-5 12,-11 -1,-3 -8,-18 -12,-26z"/>
     </g>
     <g id="_312774576">
      <path class="fil0" d="M336 397c-12,0 -22,-9 -22,-21 0,-5 5,-16 15,-34 1,-2 2,-4 3,-5 1,-2 3,-3 4,-3 0,0 1,0 1,0 1,0 3,1 4,3 1,1 2,3 3,6 9,18 14,29 14,33 0,12 -10,21 -22,21zm0 -47c-4,8 -11,23 -12,26 0,6 6,11 12,11 7,0 12,-5 12,-11 0,-3 -8,-18 -12,-26z"/>
     </g>
     <g id="_312757968">
      <path class="fil0" d="M475 282l-183 0c-3,0 -5,-3 -5,-6 0,-2 2,-5 5,-5l182 0c17,-5 27,-18 28,-33 0,-11 -6,-25 -22,-30 -2,-1 -4,-3 -4,-5 0,0 -3,-16 -14,-24 -6,-4 -14,-6 -23,-4 -2,0 -5,-1 -5,-3 -8,-22 -27,-35 -51,-35 -23,0 -42,13 -50,35 0,2 -3,3 -5,3 -6,-1 -10,-1 -15,0 -2,1 -5,-1 -6,-3 -1,-3 1,-6 4,-7 4,-1 9,-1 14,-1 10,-23 32,-38 58,-38 27,0 49,15 59,38 10,-1 19,2 26,7 12,8 16,22 18,28 16,7 26,22 26,39 -1,20 -14,37 -35,43 -1,0 -1,1 -2,1z"/>
     </g>
    </g>
    <g>
     <g id="_312772968">
      <path class="fil0" d="M177 379c-16,0 -29,-12 -29,-26 0,-6 7,-21 20,-46 1,-4 3,-7 4,-9 1,-2 2,-3 4,-3 2,0 4,1 5,3 1,2 2,4 4,8 13,24 21,40 21,47 0,14 -13,26 -29,26zm0 -67c-6,10 -18,36 -19,41 0,9 9,16 19,16 10,0 18,-7 18,-16 0,-6 -13,-31 -18,-41z"/>
     </g>
     <g id="_312773496">
      <path class="fil0" d="M111 442c-16,0 -29,-12 -29,-27 0,-5 7,-20 20,-45 2,-4 3,-7 4,-9 1,-2 3,-3 4,-3 2,0 4,1 5,3 1,2 2,4 4,8 13,24 21,40 21,46 0,15 -13,27 -29,27zm0 -67c-5,10 -18,36 -18,41 0,9 8,16 18,16 10,0 18,-7 18,-17 0,-5 -13,-30 -18,-40z"/>
     </g>
     <g id="_312773520">
      <path class="fil0" d="M243 442c-16,0 -29,-12 -29,-27 0,-5 7,-20 19,-45 2,-4 4,-7 5,-9 1,-2 2,-3 4,-3 0,0 0,0 0,0 2,0 4,1 5,3 1,2 2,4 4,7 13,25 20,41 20,47 0,15 -12,27 -28,27zm-1 -67c-5,10 -18,36 -18,41 0,9 9,16 19,16 10,0 18,-7 18,-17 0,-5 -13,-30 -19,-40z"/>
     </g>
     <g id="_312763440">
      <path class="fil0" d="M305 282l-256 0c0,0 -1,-1 -1,-1 -29,-8 -47,-31 -48,-58 -1,-24 13,-44 36,-53 1,-4 4,-13 9,-22 10,-17 26,-26 45,-26 2,0 5,0 7,1 13,-33 44,-53 80,-53 36,0 67,20 80,53 2,-1 5,-1 7,-1 19,0 34,9 44,26 6,9 8,18 9,22 23,9 37,29 37,53 -1,27 -20,50 -48,58 -1,0 -1,1 -1,1zm-255 -11l254 0c23,-7 39,-26 39,-48 1,-20 -11,-37 -32,-44 -2,-1 -3,-2 -3,-4 0,-2 -7,-43 -44,-43 -3,0 -6,1 -10,1 -2,1 -5,-1 -6,-3 -10,-30 -38,-50 -71,-50 -33,0 -61,20 -72,50 0,2 -3,4 -5,3 -21,-3 -36,4 -46,20 -6,11 -8,22 -8,22 0,2 -2,3 -3,4 -21,7 -33,24 -33,44 1,22 16,41 40,48z"/>
     </g>
    </g>
   </g>
  </g>
 </g>
</svg>
